<?xml version="1.0" encoding="UTF-8" standalone="no"?>
<!-- Created with Inkscape (http://www.inkscape.org/) -->

<svg
   width="176"
   height="39"
   viewBox="0 0 46.566663 10.31875"
   version="1.1"
   id="svg1"
   xml:space="preserve"
   inkscape:version="1.3.2 (091e20e, 2023-11-25)"
   sodipodi:docname="my-logo.svg"
   xmlns:inkscape="http://www.inkscape.org/namespaces/inkscape"
   xmlns:sodipodi="http://sodipodi.sourceforge.net/DTD/sodipodi-0.dtd"
   xmlns="http://www.w3.org/2000/svg"
   xmlns:svg="http://www.w3.org/2000/svg"><sodipodi:namedview
     id="namedview1"
     pagecolor="#ffffff"
     bordercolor="#000000"
     borderopacity="0.25"
     inkscape:showpageshadow="2"
     inkscape:pageopacity="0.0"
     inkscape:pagecheckerboard="0"
     inkscape:deskcolor="#d1d1d1"
     inkscape:document-units="mm"
     showguides="true"
     inkscape:zoom="3.21921"
     inkscape:cx="92.413976"
     inkscape:cy="47.061235"
     inkscape:window-width="1440"
     inkscape:window-height="900"
     inkscape:window-x="0"
     inkscape:window-y="0"
     inkscape:window-maximized="0"
     inkscape:current-layer="layer1" /><defs
     id="defs1" /><g
     inkscape:label="Layer 1"
     inkscape:groupmode="layer"
     id="layer1"><g
       id="g39"
       transform="translate(0,0.0821893)"><path
         style="fill:#edf1f6"
         d="M 0.04025576,5.1104709 V 0.03047054 H 23.323589 46.606921 V 5.1104709 10.190471 H 23.323589 0.04025576 Z M 26.387313,8.3248553 c 0.415022,-0.115269 0.746275,-0.5152067 0.746275,-0.9010136 0,-0.4859014 -0.400264,-0.8146234 -1.211386,-0.9948664 -0.527977,-0.1173241 -0.655626,-0.1753415 -0.634092,-0.2881999 0.02078,-0.1089075 0.155923,-0.1524137 0.589452,-0.1897593 0.309371,-0.02665 0.660595,-0.112734 0.780498,-0.1912974 0.317825,-0.2082474 0.502304,-0.6158515 0.451193,-0.9969093 -0.03971,-0.2960549 -0.0261,-0.3220526 0.1812,-0.3460541 0.19225,-0.022259 0.227874,-0.071119 0.250413,-0.3434511 l 0.02628,-0.3175 h -1.150831 c -1.268497,0 -1.587929,0.078766 -1.893176,0.4668248 -0.252393,0.3208669 -0.245835,0.8570947 0.01519,1.2417338 l 0.198737,0.2928552 -0.24107,0.1383553 c -0.186372,0.1069629 -0.24107,0.2001707 -0.24107,0.4107931 0,0.1498409 0.06668,0.3476793 0.148167,0.439641 0.123807,0.139714 0.128078,0.1741857 0.02598,0.2096743 -0.245938,0.085484 -0.512779,0.4358419 -0.510118,0.6697743 0.006,0.5262998 0.483259,0.7790514 1.478974,0.783229 0.372533,0.00156 0.817759,-0.03616 0.989391,-0.08383 z M 25.038089,7.7324994 c -0.374038,-0.1503446 -0.14444,-0.4212248 0.3556,-0.4195389 0.495169,0.00167 0.7239,0.08156 0.7239,0.252844 0,0.2367334 -0.654004,0.3377237 -1.0795,0.1666949 z m 0.4191,-2.4696285 c -0.229011,-0.2290106 -0.04261,-0.9144 0.24868,-0.9144 0.219185,0 0.41172,0.1905489 0.41172,0.4074734 0,0.4587546 -0.400866,0.7664611 -0.6604,0.5069266 z M 23.027255,6.0418043 24.17086,3.7558042 h -0.531528 -0.531527 l -0.411571,0.8255 -0.411571,0.8255001 -0.296406,-0.8255001 -0.296406,-0.8255 h -0.496464 c -0.273056,0 -0.496465,0.011798 -0.496465,0.026219 0,0.01442 0.20955,0.6261378 0.465667,1.3593726 0.256116,0.7332347 0.465666,1.3888089 0.465666,1.4568315 0,0.068023 -0.168849,0.485005 -0.37522,0.9266276 L 20.879814,8.327805 h 0.501918 0.501918 z m 20.658666,0 1.143605,-2.2860001 h -0.531527 -0.531528 l -0.411571,0.8255 -0.411571,0.8255001 -0.296406,-0.8255001 -0.296406,-0.8255 h -1.00003 -1.000031 L 39.954611,4.4819926 C 39.736896,4.8813963 39.527896,5.1766713 39.490167,5.1381594 39.452438,5.0996474 39.350134,4.7823876 39.262825,4.4331376 L 39.104081,3.7981375 38.611365,3.7724233 c -0.376348,-0.019641 -0.483584,3.552e-4 -0.454047,0.084667 0.02127,0.060709 0.205418,0.7676059 0.409221,1.570881 l 0.370552,1.4605001 0.384749,-0.00254 0.384748,-0.00254 0.802062,-1.479126 c 0.441135,-0.8135193 0.823204,-1.479126 0.849044,-1.479126 0.05598,0 0.935094,2.5347171 0.93281,2.6895501 -8.71e-4,0.058969 -0.170432,0.4685442 -0.376803,0.9101668 L 41.53848,8.3278045 h 0.501918 0.501918 z M 5.656294,6.6133044 C 5.6820801,6.4619627 5.7486975,6.0428627 5.8043328,5.681971 5.8897174,5.1281038 5.9306768,5.0258043 6.0670536,5.0258043 c 0.255671,0 0.5086454,0.3238991 0.8735353,1.1184425 l 0.3386667,0.7374426 0.6138333,0.00339 c 0.3376083,0.00187 0.6138333,-0.014968 0.6138333,-0.037407 0,-0.1343961 -0.7143785,-1.5540548 -0.860016,-1.7090788 L 7.4712585,4.9516261 7.7708382,4.8264537 C 8.3673799,4.5772026 8.5691254,3.8940522 8.2370393,3.2478041 7.9345827,2.6592159 7.6800338,2.5707601 6.2882588,2.5706023 L 5.1279287,2.5704707 5.0806699,2.8456374 C 4.9544294,3.5806798 4.527589,6.5698269 4.527589,6.718842 c 0,0.1520267 0.05613,0.1696291 0.5409107,0.1696291 H 5.6094104 Z M 5.9985201,4.2849709 c 0.023655,-0.081492 0.068712,-0.3672417 0.1001277,-0.6350001 0.050504,-0.4304541 0.079039,-0.4868333 0.2463958,-0.4868333 0.3624437,0 0.7051452,0.1769222 0.8037325,0.414933 0.1981735,0.4784331 -0.1999525,0.8550671 -0.9038602,0.8550671 -0.2355633,0 -0.2814032,-0.027565 -0.2463958,-0.1481667 z m 4.5030529,2.4791929 c 0.212644,-0.1608356 0.298359,-0.1618083 0.2373,-0.00269 -0.04024,0.1048563 0.04716,0.127 0.501235,0.127 h 0.549969 l 0.04801,-0.2751667 c 0.02641,-0.1513417 0.133309,-0.8398363 0.237564,-1.529988 0.163872,-1.0848106 0.172983,-1.2659844 0.06725,-1.337214 -0.06731,-0.045343 -0.522068,-0.069452 -1.011308,-0.053614 C 10.179851,3.723297 9.8713289,3.8235929 9.4095301,4.2523032 8.4608384,5.13302 8.8399894,6.8884711 9.9789026,6.8884711 c 0.1970774,0 0.4322784,-0.055938 0.5226704,-0.1243073 z M 10.078056,5.8536321 c -0.1636636,-0.2336631 -0.1659197,-0.4129412 -0.0099,-0.78636 0.13325,-0.3189117 0.569098,-0.6333188 0.878633,-0.6338181 0.145972,-2.354e-4 0.185799,0.037618 0.15556,0.1478502 -0.02235,0.081492 -0.06433,0.3005667 -0.09327,0.4868334 -0.116,0.7465583 -0.135471,0.7891536 -0.403446,0.8825704 -0.353292,0.1231583 -0.376289,0.1189268 -0.527584,-0.097076 z m 3.699051,0.097686 c 0.135399,-0.9557011 0.246771,-1.2033482 0.590184,-1.3123435 0.106346,-0.033753 0.23227,0.010362 0.352805,0.1235987 L 14.90753,4.938658 15.14421,4.456076 15.38089,3.973494 15.194193,3.8223157 c -0.248254,-0.2010239 -0.602213,-0.1912072 -0.876186,0.0243 -0.184927,0.1454637 -0.223085,0.1527046 -0.223085,0.042333 0,-0.1069752 -0.104709,-0.1331451 -0.532726,-0.1331451 h -0.532727 l -0.193728,1.3335001 c -0.10655,0.733425 -0.214485,1.4382751 -0.239856,1.5663334 l -0.04613,0.2328334 h 0.54729 0.54729 z m 3.992431,0.819113 c 0.225805,-0.094348 0.294332,-0.1810549 0.341407,-0.4319849 0.03239,-0.1726695 0.04691,-0.3257485 0.03227,-0.3401755 C 18.12857,5.9838431 17.892661,6.0291661 17.618971,6.098988 17.044168,6.2456281 16.590502,6.1905406 16.466618,5.9590603 16.295608,5.6395267 16.353121,5.618471 17.396922,5.618471 h 1.016 V 5.1707443 c 0,-0.9165065 -0.537714,-1.4996068 -1.382883,-1.4996068 -0.5245,0 -0.917915,0.1877891 -1.280259,0.6111071 -0.502414,0.5869583 -0.568771,1.4402794 -0.160459,2.0634423 0.314561,0.4800815 1.496623,0.7103675 2.180217,0.4247442 z m -1.16731,-2.019793 c 0.278676,-0.5438924 0.652462,-0.5418269 0.761669,0.00421 l 0.05419,0.2709579 H 16.939664 16.46124 Z m 3.581711,0.2116667 C 20.337391,3.9029125 20.4827,2.9313624 20.506849,2.8033041 l 0.04391,-0.2328334 h -0.560916 c -0.308505,0 -0.560917,0.019912 -0.560917,0.044249 0,0.024337 -0.13335,0.9459403 -0.296333,2.0480071 -0.162984,1.1020669 -0.296334,2.0537048 -0.296334,2.114751 0,0.079822 0.150065,0.1109931 0.534341,0.1109931 h 0.53434 z m 8.833167,0.9890133 c 0.1354,-0.9557011 0.246771,-1.2033482 0.590185,-1.3123435 0.106346,-0.033753 0.23227,0.010362 0.352804,0.1235987 L 30.147529,4.938658 30.38421,4.456076 30.62089,3.973494 30.434193,3.8223157 c -0.248254,-0.2010239 -0.602213,-0.1912072 -0.876187,0.0243 -0.184927,0.1454637 -0.223084,0.1527046 -0.223084,0.042333 0,-0.1069752 -0.104709,-0.1331451 -0.532727,-0.1331451 h -0.532726 l -0.193728,1.3335001 c -0.10655,0.733425 -0.214486,1.4382751 -0.239857,1.5663334 l -0.04613,0.2328334 h 0.54729 0.54729 z m 3.800862,0.817491 c 1.075049,-0.4491844 1.427874,-1.8968478 0.64609,-2.6509505 -0.35172,-0.3392655 -0.64045,-0.4467206 -1.200331,-0.4467206 -1.094417,0 -1.960733,1.0230866 -1.731233,2.044519 0.107848,0.4799934 0.341975,0.7822391 0.770102,0.9941579 0.423719,0.2097372 1.092299,0.2357654 1.515372,0.058994 z M 31.809094,5.9100034 c -0.367909,-0.2576931 -0.205508,-1.1250015 0.245644,-1.3118748 0.491155,-0.203443 0.864863,0.2933567 0.668421,0.8885834 -0.165063,0.5001463 -0.549903,0.6783605 -0.914065,0.4232914 z m 4.903541,0.8588052 C 37.787684,6.3196242 38.140508,4.8719608 37.358724,4.1178581 37.007005,3.7785926 36.718275,3.6711375 36.158393,3.6711375 c -1.094416,0 -1.960733,1.0230866 -1.731232,2.044519 0.107847,0.4799934 0.341975,0.7822391 0.770101,0.9941579 0.42372,0.2097372 1.0923,0.2357654 1.515373,0.058994 z M 35.703761,5.9100034 C 35.335852,5.6523103 35.498253,4.7850019 35.949405,4.5981286 36.44056,4.3946856 36.814268,4.8914853 36.617826,5.486712 36.452762,5.9868583 36.067923,6.1650725 35.703761,5.9100034 Z M 2.3476506,4.2150688 2.5372589,3.9970001 2.5832512,4.1939021 C 2.6183508,4.3441702 2.697099,4.3973468 2.9157486,4.418429 3.2635022,4.4519595 3.5534028,4.3077922 3.781023,3.9881292 4.0179853,3.6553462 3.9300046,3.3571515 3.5477307,3.1974273 3.2814565,3.0861708 3.2201334,3.0883 2.9461479,3.2183146 2.7783513,3.2979393 2.6230865,3.4318297 2.601115,3.5158488 2.5664079,3.6485692 2.5290863,3.6342683 2.3166395,3.4068433 2.1821494,3.2628712 2.0200269,3.1650627 1.9563673,3.1894912 1.8658658,3.2242199 1.8496349,3.1539498 1.8819456,2.8672903 1.9205412,2.5248713 1.9057822,2.4916314 1.6583308,2.3636693 1.4441107,2.2528918 1.3570717,2.246012 1.2036578,2.3277307 0.92407557,2.4766553 0.80797214,2.6638826 0.80494842,2.9706856 0.80198317,3.2715567 1.1182657,3.5611047 1.3519354,3.4714373 1.4934358,3.4171385 1.5286746,3.5461407 1.3949224,3.6288042 1.2318119,3.729612 1.3092404,4.081382 1.5333404,4.2576591 1.8332817,4.493593 2.1184451,4.4786783 2.3476506,4.2150688 Z M 4.3316321,2.9790455 C 4.4801217,2.8395468 4.527589,2.7027254 4.527589,2.4142122 4.527589,1.6729455 4.0012505,1.4864188 3.4753222,2.041304 3.0788518,2.4596037 3.0701487,2.7642974 3.448089,2.9947321 3.8054885,3.2126428 4.0883244,3.2076213 4.3316321,2.9790455 Z M 2.1878377,2.1409923 C 2.4568239,1.9294076 2.4733285,1.6566432 2.2354439,1.354222 2.0368358,1.1017327 1.7748991,1.0692903 1.4984279,1.2629382 1.1722989,1.4913679 1.2728719,1.9898652 1.6912557,2.2187034 1.9199451,2.3437868 1.93253,2.3418173 2.1878377,2.1409923 Z M 3.6370673,1.7002834 C 3.848564,1.3983295 3.7991132,1.0818725 3.5080448,0.87461357 3.191853,0.64946516 2.9600506,0.69423657 2.6235718,1.0454449 2.3785801,1.3011611 2.3769069,1.3094146 2.4989179,1.6603224 2.666299,2.1417156 2.9466412,2.2838851 3.2718647,2.0523055 3.4020392,1.9596131 3.5663804,1.8012031 3.6370673,1.7002834 Z"
         id="path45" /><path
         style="fill:#a0aecc"
         d="m 24.747047,8.3546342 c 0.06112,-0.024458 0.134144,-0.02145 0.162278,0.00668 0.02813,0.028134 -0.02187,0.048145 -0.111125,0.044469 -0.09863,-0.00406 -0.118694,-0.024125 -0.05115,-0.051153 z M 25.2937,7.2531312 c 0.08238,-0.021467 0.196678,-0.020055 0.254,0.00314 0.05732,0.023192 -0.01008,0.040756 -0.149778,0.03903 -0.1397,-0.00173 -0.1866,-0.020701 -0.104222,-0.042168 z m 5.554422,-0.8514935 c -0.105314,-0.134286 -0.10232,-0.1372807 0.03197,-0.031966 0.141034,0.1106059 0.185884,0.180133 0.116201,0.180133 -0.01758,0 -0.08426,-0.066675 -0.148167,-0.1481667 z m 3.894667,0 c -0.105315,-0.134286 -0.10232,-0.1372807 0.03197,-0.031966 0.08149,0.06391 0.148167,0.1305851 0.148167,0.1481666 0,0.069684 -0.06953,0.024833 -0.180133,-0.1162003 z M 24.254922,6.0945047 c 0,-0.017581 0.06668,-0.084256 0.148167,-0.1481667 0.134286,-0.1053144 0.13728,-0.1023197 0.03197,0.031966 -0.110606,0.1410334 -0.180133,0.1858839 -0.180133,0.1162004 z M 18.927606,5.9077488 c 0.0041,-0.098632 0.02412,-0.1186942 0.05115,-0.051153 0.02446,0.061119 0.02145,0.1341438 -0.0067,0.1622778 -0.02813,0.028134 -0.04815,-0.021872 -0.04447,-0.111125 z M 8.8669404,5.5761376 c 9.398e-4,-0.1862666 0.018278,-0.2524974 0.03853,-0.1471795 0.020252,0.1053179 0.019483,0.257718 -0.00171,0.3386667 -0.021192,0.080949 -0.037761,-0.00522 -0.03682,-0.1914872 z M 24.593589,5.839196 c 0,-0.018301 0.05913,-0.055965 0.131397,-0.083697 0.07535,-0.028913 0.109332,-0.014719 0.07967,0.033275 -0.04972,0.080451 -0.211067,0.1189946 -0.211067,0.050422 z M 15.296761,5.4068043 c 0.0017,-0.1397 0.0207,-0.1865999 0.04217,-0.104222 0.02147,0.082378 0.02005,0.196678 -0.0031,0.254 -0.02319,0.057322 -0.04076,-0.010078 -0.03903,-0.149778 z m 16.256,0 c 0.0017,-0.1397 0.0207,-0.1865999 0.04217,-0.104222 0.02147,0.082378 0.02005,0.196678 -0.0031,0.254 -0.02319,0.057322 -0.04076,-0.010078 -0.03903,-0.149778 z m 3.894666,0 c 0.0017,-0.1397 0.0207,-0.1865999 0.04217,-0.104222 0.02147,0.082378 0.02005,0.196678 -0.0031,0.254 -0.02319,0.057322 -0.04076,-0.010078 -0.03903,-0.149778 z M 5.8042732,5.3150821 c 0.00406,-0.098632 0.024125,-0.1186942 0.051153,-0.051153 0.024458,0.061119 0.02145,0.1341437 -0.00668,0.1622778 -0.028134,0.028134 -0.048145,-0.021872 -0.044468,-0.111125 z M 33.843607,5.1528043 c 9.39e-4,-0.1862667 0.01828,-0.2524975 0.03853,-0.1471796 0.02025,0.105318 0.01948,0.257718 -0.0017,0.3386667 -0.02119,0.080949 -0.03776,-0.00522 -0.03682,-0.1914871 z m 3.894666,0 c 9.4e-4,-0.1862667 0.01828,-0.2524975 0.03853,-0.1471796 0.02025,0.105318 0.01948,0.257718 -0.0017,0.3386667 -0.02119,0.080949 -0.03776,-0.00522 -0.03682,-0.1914871 z M 4.7036065,5.2304154 c 0.00406,-0.098632 0.024125,-0.1186942 0.051153,-0.051153 0.024458,0.061119 0.02145,0.1341438 -0.00668,0.1622778 -0.028134,0.028134 -0.048145,-0.021872 -0.044469,-0.111125 z M 25.28429,4.9411376 c 0,-0.1164167 0.01922,-0.1640417 0.04271,-0.1058334 0.02349,0.058208 0.02349,0.1534584 0,0.2116667 -0.02349,0.058208 -0.04271,0.010583 -0.04271,-0.1058333 z m -17.8780344,0 c 0,-0.046567 0.040349,-0.084667 0.089663,-0.084667 0.049315,0 0.066116,0.0381 0.037337,0.084667 -0.02878,0.046567 -0.069128,0.084667 -0.089663,0.084667 -0.020535,0 -0.037337,-0.0381 -0.037337,-0.084667 z M 27.478939,4.2144153 c 0.0041,-0.098632 0.02412,-0.1186941 0.05115,-0.051153 0.02446,0.061119 0.02145,0.1341438 -0.0067,0.1622778 -0.02813,0.028134 -0.04814,-0.021872 -0.04447,-0.111125 z m 3.506983,-0.035278 c 0.08428,-0.093133 0.172294,-0.1693333 0.195578,-0.1693333 0.02328,0 -0.02663,0.0762 -0.110912,0.1693333 -0.08428,0.093133 -0.172294,0.1693334 -0.195577,0.1693334 -0.02328,0 0.02663,-0.0762 0.110911,-0.1693334 z m 3.894666,0 c 0.08428,-0.093133 0.172295,-0.1693333 0.195578,-0.1693333 0.02328,0 -0.02663,0.0762 -0.110911,0.1693333 -0.08429,0.093133 -0.172295,0.1693334 -0.195578,0.1693334 -0.02328,0 0.02663,-0.0762 0.110911,-0.1693334 z m -31.368999,0.0527 c 0,-0.017582 0.066675,-0.084257 0.1481667,-0.1481667 C 3.7940417,3.9783568 3.7970364,3.9813515 3.691722,4.1156375 3.5811161,4.2566709 3.511589,4.3015214 3.511589,4.2318373 Z m 14.4672,-0.200867 c -0.105314,-0.1342861 -0.10232,-0.1372808 0.03197,-0.031966 0.141034,0.110606 0.185884,0.180133 0.116201,0.180133 -0.01758,0 -0.08426,-0.066675 -0.148167,-0.1481666 z M 2.4532557,3.8404708 c 0,-0.1308065 0.028575,-0.2201698 0.0635,-0.1985849 0.034925,0.021585 0.0635,0.110948 0.0635,0.1985849 0,0.087637 -0.028575,0.1770002 -0.0635,0.198585 -0.034925,0.021585 -0.0635,-0.067778 -0.0635,-0.198585 z m 5.9039761,0 c 0,-0.1629833 0.017424,-0.2296583 0.03872,-0.1481666 0.021296,0.081492 0.021296,0.2148416 0,0.2963333 -0.021296,0.081492 -0.03872,0.014817 -0.03872,-0.1481667 z M 10.517756,3.6997311 c 0.05821,-0.023488 0.153458,-0.023488 0.211666,0 0.05821,0.023487 0.01058,0.042705 -0.105833,0.042705 -0.116417,0 -0.164042,-0.019217 -0.105833,-0.042705 z m 1.269999,0 c 0.05821,-0.023488 0.153459,-0.023488 0.211667,0 0.05821,0.023487 0.01058,0.042705 -0.105833,0.042705 -0.116417,0 -0.164042,-0.019217 -0.105834,-0.042705 z M 1.4795891,3.4171375 c 0,-0.046567 0.040348,-0.084667 0.089663,-0.084667 0.049315,0 0.066116,0.0381 0.037337,0.084667 -0.02878,0.046567 -0.069128,0.084667 -0.089664,0.084667 -0.020535,0 -0.037336,-0.0381 -0.037336,-0.084667 z M 0.87612272,3.2689708 C 0.77080834,3.1346847 0.77380303,3.1316901 0.90808907,3.2370044 c 0.0814917,0.06391 0.14816663,0.1305852 0.14816663,0.1481667 0,0.069684 -0.069527,0.024833 -0.18013298,-0.1162003 z M 19.35094,3.0290819 c 0.0041,-0.098632 0.02412,-0.1186942 0.05115,-0.051153 0.02446,0.061119 0.02145,0.1341438 -0.0067,0.1622778 -0.02813,0.028134 -0.04814,-0.021872 -0.04447,-0.111125 z M 7.9485445,2.8879708 7.7872556,2.6974707 l 0.1905,0.161289 c 0.179023,0.1515718 0.2290437,0.2197111 0.1612889,0.2197111 -0.016066,0 -0.1017911,-0.085725 -0.1905,-0.1905 z M 3.2467893,2.8456374 C 3.141475,2.7113514 3.1444696,2.7083567 3.2787557,2.8136711 c 0.1410333,0.110606 0.1858839,0.180133 0.1162003,0.180133 -0.017581,0 -0.084256,-0.066675 -0.1481667,-0.1481667 z m 4.0589246,-0.248337 c 0.061119,-0.024458 0.1341438,-0.02145 0.1622778,0.00668 0.028134,0.028134 -0.021872,0.048145 -0.111125,0.044469 -0.098632,-0.00406 -0.1186941,-0.024125 -0.051153,-0.051153 z M 2.3447126,1.8084707 c -8.678e-4,-0.1164167 0.028927,-0.3069167 0.06621,-0.4233334 0.053118,-0.1658615 0.067446,-0.1750225 0.06621,-0.042333 -8.677e-4,0.093133 -0.030662,0.2836333 -0.06621,0.4233333 -0.058055,0.2281526 -0.064793,0.2324605 -0.06621,0.042333 z M 2.061456,1.2369706 C 1.9561416,1.1026846 1.9591363,1.0996899 2.0934224,1.2050043 2.174914,1.2689145 2.241589,1.3355895 2.241589,1.353171 c 0,0.069684 -0.069527,0.024833 -0.180133,-0.1162004 z m 1.524,-0.25399999 C 3.4801416,0.84868456 3.4831363,0.84568987 3.6174223,0.95100426 3.7584557,1.0616102 3.8033062,1.1311373 3.7336227,1.1311373 c -0.017582,0 -0.084257,-0.066675 -0.1481667,-0.14816669 z"
         id="path44" /><path
         style="fill:#886eef"
         d="m 1.8817557,4.3770644 c 0.058208,-0.023487 0.1534583,-0.023487 0.2116667,0 0.058208,0.023488 0.010583,0.042705 -0.1058334,0.042705 -0.1164166,0 -0.1640416,-0.019217 -0.1058333,-0.042705 z M 1.3169399,3.8757486 c 0.00406,-0.098632 0.024125,-0.1186941 0.051153,-0.051153 0.024458,0.061119 0.02145,0.1341438 -0.00668,0.1622778 -0.028134,0.028134 -0.048145,-0.021872 -0.044469,-0.111125 z M 1.5015462,3.5372667 c 0.08126,-0.096912 0.1302472,-0.1937026 0.1088603,-0.2150896 -0.021387,-0.021387 0.039986,-0.044827 0.1363853,-0.052088 0.096399,-0.00726 0.1614392,-0.00572 0.144534,0.00342 -0.016905,0.00914 -0.1447642,0.1118757 -0.284131,0.2282923 -0.186975,0.156185 -0.2146674,0.1654804 -0.1056486,0.035463 z m 2.2136651,-0.1412959 -0.161289,-0.1905 0.1905,0.1612889 c 0.104775,0.088709 0.1905,0.174434 0.1905,0.1905001 0,0.067755 -0.068139,0.017734 -0.219711,-0.161289 z m 0.473711,-0.3494664 c 0,-0.017581 0.066675,-0.084256 0.1481667,-0.1481667 C 4.471375,2.7930234 4.4743697,2.796018 4.3690553,2.9303041 4.2584494,3.0713374 4.1889223,3.116188 4.1889223,3.0465044 Z m -2.505711,-0.581867 -0.1612889,-0.1905 0.1905,0.1612889 c 0.179023,0.1515719 0.2290437,0.2197111 0.1612889,0.2197111 -0.016066,0 -0.101791,-0.085725 -0.1905,-0.1905 z M 3.257589,2.2899778 c 0,-0.014571 0.123825,-0.1383962 0.2751667,-0.2751667 L 3.8079223,1.7661373 3.5592486,2.041304 C 3.3274499,2.2977979 3.257589,2.3553879 3.257589,2.2899778 Z M 2.7078551,2.0634405 c -0.029662,-0.047994 0.00432,-0.062188 0.07967,-0.033275 0.146678,0.056286 0.1735147,0.1169718 0.051728,0.1169718 -0.043818,0 -0.1029473,-0.037664 -0.131398,-0.083697 z M 1.8023807,1.157967 C 1.8634997,1.133509 1.9365245,1.136517 1.9646585,1.164647 1.9927925,1.192781 1.9427865,1.212792 1.8535335,1.209116 1.7549015,1.205056 1.7348393,1.184991 1.8023805,1.157963 Z"
         id="path43" /><path
         style="fill:#7154f2"
         d="M 2.6679013,4.2693703 C 2.4309596,3.8266407 2.6661306,3.2888975 3.136345,3.1982246 c 0.2033751,-0.039217 0.3182323,-8.848e-4 0.5291666,0.1766047 0.1481759,0.1246818 0.2694107,0.2545452 0.2694107,0.2885853 0,0.1016306 -0.4515353,0.5686242 -0.6506005,0.6728739 C 3.0094136,4.4802567 2.7666605,4.4539036 2.6679013,4.2693703 Z m -1.0848067,-0.0527 C 1.3162574,4.0297699 1.3453824,3.7278753 1.6554185,3.4669971 1.9832445,3.1911497 2.1006083,3.1918368 2.3201106,3.4708888 2.5313838,3.7394793 2.5386734,3.8653401 2.3588515,4.139783 2.1992802,4.3833197 1.8679101,4.4161625 1.5830946,4.2166703 Z M 0.93405667,3.2289653 C 0.74831475,2.9637815 0.76980622,2.7645566 1.0100739,2.5242889 1.2700844,2.2642784 1.4823689,2.2607257 1.7188305,2.5124276 1.9598849,2.7690184 1.9510709,2.9225647 1.6797103,3.1939253 1.4070545,3.4665812 1.1102582,3.4805283 0.93405667,3.2289653 Z M 3.6138036,3.0218818 C 3.0728188,2.7552565 3.0793451,2.4801843 3.6382997,1.9894156 4.0026178,1.6695399 4.0533833,1.6652347 4.3197708,1.9316222 4.611073,2.2229244 4.595877,2.599875 4.2801018,2.9156503 3.9935629,3.2021892 3.9830496,3.2038654 3.6138036,3.0218818 Z M 1.5325134,2.055675 C 1.1233963,1.7338634 1.3142363,1.215804 1.8419007,1.215804 c 0.4146326,0 0.6751303,0.7386091 0.3263338,0.9252793 C 1.9226026,2.2725415 1.7846531,2.2540082 1.5325134,2.055675 Z M 2.775132,2.0200322 C 2.5784238,1.8822524 2.4537441,1.4810264 2.5315043,1.2360255 2.5863922,1.0630889 3.0009615,0.7924706 3.2110009,0.7924706 c 0.1757134,0 0.5545881,0.3731722 0.5545881,0.546241 0,0.1576306 -0.5721081,0.8084258 -0.7106798,0.8084258 -0.05407,0 -0.1799698,-0.057197 -0.2797772,-0.1271052 z"
         id="path42" /><path
         style="fill:#6a8aac"
         d="m 23.922939,7.6010822 c 0.0041,-0.098632 0.02413,-0.1186941 0.05115,-0.051153 0.02446,0.061119 0.02145,0.1341437 -0.0067,0.1622778 -0.02813,0.028134 -0.04814,-0.021872 -0.04447,-0.1111251 z"
         id="path41" /><path
         style="fill:#5178a0"
         d="m 18.341624,5.1104709 c 0,-0.1164166 0.01922,-0.1640416 0.0427,-0.1058333 0.02349,0.058208 0.02349,0.1534583 0,0.2116667 -0.02349,0.058208 -0.0427,0.010583 -0.0427,-0.1058334 z M 9.2689222,4.4011712 c 0,-0.017582 0.066675,-0.084257 0.1481667,-0.1481667 0.134286,-0.1053144 0.1372807,-0.1023197 0.031966,0.031966 C 9.338449,4.4260038 9.2689219,4.4708544 9.2689222,4.4011712 Z m 6.4346668,-0.084667 c 0,-0.017581 0.06668,-0.084256 0.148166,-0.1481667 0.134286,-0.1053143 0.137281,-0.1023197 0.03197,0.031966 -0.110606,0.1410333 -0.180133,0.1858839 -0.180133,0.1162003 z"
         id="path40" /><path
         style="fill:#014d86"
         d="M 24.889922,8.3623829 C 24.796789,8.3397387 24.633894,8.3026759 24.527935,8.2800211 24.001464,8.1674586 23.809924,7.4743337 24.216837,7.1542555 24.335591,7.0608439 24.475506,6.9701653 24.527759,6.9527475 24.586675,6.933109 24.549564,6.8220683 24.43007,6.6604433 24.181996,6.3249062 24.256898,6.0677143 24.650594,5.9032174 L 24.945282,5.7800887 24.72914,5.610071 c -0.118878,-0.09351 -0.260075,-0.3166523 -0.313771,-0.4958723 -0.08322,-0.277759 -0.07415,-0.3735897 0.06146,-0.6492677 0.272255,-0.5534625 0.573675,-0.6623183 1.928205,-0.6963573 1.074193,-0.026994 1.1717,-0.017193 1.121833,0.1127581 -0.03004,0.078277 -0.05461,0.2344556 -0.05461,0.3470637 0,0.1670402 -0.04299,0.2047421 -0.233443,0.2047421 -0.224868,0 -0.232326,0.014057 -0.20301,0.3826496 0.05381,0.6766113 -0.340235,1.0218544 -1.285301,1.1261091 -0.442584,0.048824 -0.521912,0.08283 -0.521912,0.2237318 0,0.1249646 0.08396,0.1846627 0.338666,0.2408025 0.789415,0.1739945 0.979341,0.2437469 1.223817,0.4494603 0.212642,0.1789264 0.25785,0.2798581 0.25785,0.5756813 0,0.3737252 -0.153936,0.5884862 -0.579225,0.8080987 -0.209584,0.1082254 -1.293175,0.1923953 -1.579775,0.122712 z m 1.227667,-0.6695784 c 0.159941,-0.1927177 -0.02912,-0.3622943 -0.479157,-0.429782 -0.450747,-0.067594 -0.790843,0.058801 -0.790843,0.2939113 0,0.2095273 0.103291,0.2479819 0.688133,0.2561865 0.326798,0.00458 0.509574,-0.033209 0.581867,-0.1203158 z m -0.01037,-2.6176094 c 0.174085,-0.364917 0.04211,-0.6768603 -0.300522,-0.7103153 -0.30678,-0.029955 -0.535771,0.217155 -0.535771,0.5781633 0,0.2952517 0.159663,0.4340979 0.464661,0.4040779 0.18409,-0.018119 0.286194,-0.09283 0.371632,-0.2719259 z m -5.154293,3.2113957 c 0,-0.022668 0.178061,-0.3996662 0.395691,-0.8377749 L 21.744304,6.6522546 21.263733,5.2675294 C 20.999419,4.5059305 20.783258,3.8522381 20.783376,3.8148795 c 1.17e-4,-0.037358 0.194946,-0.056408 0.432953,-0.042333 l 0.432739,0.025591 0.282768,0.7931186 c 0.155522,0.4362152 0.301336,0.8116871 0.324031,0.834382 0.0227,0.022695 0.234464,-0.3437334 0.470598,-0.8142852 l 0.429334,-0.8555487 h 0.46057 0.460569 L 23.014865,5.935971 c -0.584141,1.1990918 -1.081571,2.2277918 -1.1054,2.2860002 -0.04088,0.09985 -0.956543,0.1617078 -0.956543,0.06462 z m 20.658666,-0.00281 c 0,-0.024214 0.174332,-0.3911399 0.387403,-0.8153912 0.264435,-0.5265213 0.371887,-0.8331895 0.338519,-0.9661368 -0.125168,-0.498712 -0.921149,-2.6617806 -0.979499,-2.6617806 -0.03617,0 -0.440619,0.6858001 -0.898776,1.5240002 L 39.626227,6.8884725 H 39.30984 c -0.361,0 -0.272835,0.2065628 -0.784147,-1.8371931 -0.165422,-0.6612062 -0.300767,-1.2231813 -0.300767,-1.2488335 0,-0.025652 0.186941,-0.04664 0.415425,-0.04664 h 0.415425 l 0.193906,0.8043334 c 0.106648,0.4423833 0.214982,0.8041488 0.240742,0.8039232 0.02576,-2.257e-4 0.237769,-0.3526507 0.471133,-0.7831668 l 0.424299,-0.7827565 h 0.960528 0.960528 l 0.283181,0.7931186 c 0.155749,0.4362152 0.301749,0.8116871 0.324444,0.834382 0.02269,0.022695 0.234464,-0.3437334 0.470598,-0.8142852 l 0.429334,-0.8555487 h 0.46057 0.46057 L 43.673531,5.935971 c -0.58414,1.1990918 -1.08157,2.2277918 -1.1054,2.2860002 -0.04163,0.1016787 -0.956543,0.1607971 -0.956543,0.061808 z M 4.581474,6.6133044 C 4.6052554,6.4619627 4.745735,5.4999376 4.8936509,4.4754709 L 5.162589,2.6128041 h 1.143 c 0.9958017,0 1.1811624,0.022178 1.4393333,0.1722135 C 8.157434,3.0247479 8.356123,3.4381647 8.3108175,3.9624889 8.2702721,4.4317237 8.0045093,4.7410535 7.5666746,4.8286205 l -0.2441985,0.04884 0.251018,0.2858936 c 0.2253262,0.2566325 0.8487615,1.4703402 0.8487615,1.6523743 0,0.040009 -0.2425489,0.072743 -0.5389976,0.072743 H 7.3442605 L 7.0726933,6.2746377 C 6.6323289,5.2792656 6.4364054,5.0258043 6.1073556,5.0258043 H 5.8268582 L 5.7199329,5.8430809 C 5.661124,6.2925831 5.5933121,6.7116831 5.5692399,6.7744143 5.539468,6.8519986 5.3676253,6.8884711 5.0318536,6.8884711 H 4.5382351 Z M 7.0409654,4.2490456 C 7.2628816,4.0405661 7.3027289,3.6241648 7.1241355,3.3799237 7.00305,3.2143293 6.1935314,3.0835267 6.1153439,3.2169224 6.0917414,3.2571907 6.0456584,3.5473125 6.0129373,3.8616375 l -0.059493,0.5715001 h 0.4457821 c 0.341168,0 0.4917683,-0.043202 0.641739,-0.184092 z m 2.572642,2.4911272 C 9.2056944,6.532173 8.9980141,6.2091957 8.9498475,5.7079162 8.8697263,4.8740781 9.4147688,4.0642816 10.216624,3.8258045 c 0.337722,-0.1004409 1.879439,-0.1521876 1.961421,-0.065834 0.02536,0.026709 -0.371944,2.7771149 -0.448859,3.1073337 -0.0027,0.011642 -0.21448,0.021167 -0.470597,0.021167 -0.409373,0 -0.465667,-0.02049 -0.465667,-0.1694978 V 6.5494754 L 10.476676,6.7189733 C 10.089932,6.9262559 9.9836582,6.9288663 9.6136074,6.7401728 Z M 10.735614,5.948555 c 0.17037,-0.077626 0.220687,-0.190297 0.300318,-0.6724759 0.138323,-0.8375795 0.137166,-0.8429415 -0.181838,-0.8429415 -0.335253,0 -0.611036,0.1796387 -0.781322,0.5089351 -0.1519986,0.2939329 -0.1660543,0.8569937 -0.02492,0.9981316 0.126871,0.1268712 0.419827,0.1304283 0.687758,0.00835 z m 1.919975,0.8218803 c 0,-0.06492 0.09525,-0.7357036 0.211666,-1.490631 0.116417,-0.7549274 0.211667,-1.4066614 0.211667,-1.4482977 0,-0.041636 0.20955,-0.075702 0.465667,-0.075702 0.448912,0 0.465666,0.00819 0.465666,0.227507 v 0.2275071 l 0.232834,-0.2214684 c 0.328256,-0.3122331 0.6196,-0.3669114 0.870873,-0.1634422 l 0.204001,0.1651894 -0.202668,0.4327042 c -0.184407,0.3937168 -0.215314,0.4212598 -0.34302,0.3056869 -0.203666,-0.1843149 -0.536509,-0.1557567 -0.739884,0.063483 -0.131657,0.1419266 -0.210978,0.4232264 -0.311092,1.1032299 -0.07391,0.5020015 -0.134377,0.9306265 -0.134377,0.9525001 0,0.021874 -0.20955,0.03977 -0.465667,0.03977 -0.341763,0 -0.465666,-0.031407 -0.465666,-0.1180363 z m 3.728426,0.018629 c -0.642597,-0.1843703 -1.021341,-0.707543 -1.017233,-1.40514 0.004,-0.6813403 0.585871,-1.4400824 1.244659,-1.6230293 0.442616,-0.1229155 0.604003,-0.1107685 1.016565,0.076513 0.498494,0.22629 0.699535,0.5858695 0.699933,1.2518967 l 3.16e-4,0.5291667 H 17.30655 c -1.019869,0 -1.021604,3.424e-4 -0.965118,0.1905 0.101025,0.3400915 0.289845,0.4203408 0.886157,0.3766198 0.302683,-0.022192 0.617008,-0.067699 0.6985,-0.1011265 0.116995,-0.047991 0.148166,-0.017745 0.148166,0.143766 0,0.29501 -0.164366,0.464767 -0.550333,0.5683806 -0.40446,0.1085781 -0.742982,0.106337 -1.139907,-0.00755 z m 1.025812,-2.0172602 c -0.06531,-0.4697846 -0.473174,-0.5760251 -0.76876,-0.2002486 -0.299263,0.3804514 -0.238369,0.4659792 0.311355,0.4373072 0.465254,-0.024266 0.485529,-0.034774 0.457405,-0.2370586 z m 1.773496,-0.021167 c 0.175955,-1.1758085 0.322247,-2.1473585 0.325092,-2.1590002 0.0028,-0.011642 0.214724,-0.021167 0.47084,-0.021167 0.359227,0 0.465667,0.029276 0.465667,0.12808 0,0.070444 -0.13335,1.0251345 -0.296333,2.1215344 -0.162984,1.0963999 -0.296334,2.0103139 -0.296334,2.0309201 0,0.020606 -0.222491,0.037466 -0.494426,0.037466 h -0.494426 z m 8.712265,2.0197977 c 0,-0.06492 0.09525,-0.7357036 0.211667,-1.490631 0.116417,-0.7549274 0.211667,-1.4066614 0.211667,-1.4482977 0,-0.041636 0.20955,-0.075702 0.465666,-0.075702 0.448913,0 0.465667,0.00819 0.465667,0.227507 v 0.2275071 l 0.232833,-0.2214684 c 0.328256,-0.3122331 0.6196,-0.3669114 0.870874,-0.1634422 l 0.204,0.1651894 -0.202667,0.4327042 C 30.170888,4.817518 30.139981,4.845061 30.012274,4.7294881 29.808609,4.5451732 29.475765,4.5737314 29.27239,4.7929711 29.140734,4.9348977 29.061412,5.2161975 28.961299,5.896201 c -0.07391,0.5020015 -0.134377,0.9306265 -0.134377,0.9525001 0,0.021874 -0.20955,0.03977 -0.465667,0.03977 -0.341764,0 -0.465667,-0.031407 -0.465667,-0.1180363 z m 3.725334,0.022887 C 31.161512,6.6560616 30.803511,6.3357386 30.644668,5.9198132 30.183206,4.711493 31.397152,3.4344205 32.704159,3.7532264 c 0.70923,0.1729958 1.117251,0.6867459 1.11778,1.4074279 8.2e-4,1.1174922 -1.126493,1.9537089 -2.201017,1.6326675 z m 0.80054,-0.8041109 c 0.349216,-0.1340069 0.513732,-1.0192644 0.244671,-1.3165734 -0.202453,-0.223708 -0.635034,-0.1995334 -0.86806,0.048511 -0.255917,0.2724114 -0.327839,0.8262832 -0.143774,1.107202 0.140186,0.2139515 0.456156,0.2802047 0.767163,0.1608604 z m 3.094126,0.8041109 C 35.056178,6.6560616 34.698178,6.3357386 34.539335,5.9198132 34.077873,4.711493 35.291819,3.4344205 36.598826,3.7532264 c 0.70923,0.1729958 1.11725,0.6867459 1.117779,1.4074279 8.2e-4,1.1174922 -1.126492,1.9537089 -2.201017,1.6326675 z M 36.316128,5.989211 C 36.665345,5.8552041 36.82986,4.9699466 36.560799,4.6726376 36.358346,4.4489296 35.925766,4.4731042 35.69274,4.7211488 35.436823,4.9935602 35.3649,5.547432 35.548965,5.8283508 c 0.140187,0.2139515 0.456157,0.2802047 0.767163,0.1608602 z"
         id="path39" /></g></g></svg>
